<?xml version="1.0" encoding="UTF-8"?>
<svg id="Layer_2" data-name="Layer 2" xmlns="http://www.w3.org/2000/svg" viewBox="0 0 281.89 531.79">
  <g id="Layer_1-2" data-name="Layer 1">
    <g>
      <path d="M78.9,431.23c35.24-85.46,43.84-181.15,26.07-271.76-4.96-25.29-12.07-50.12-21.21-74.21-1.53-4.04-5.4-6.81-9.85-5.59-3.87,1.06-7.13,5.78-5.59,9.85,31.95,84.2,38.25,177.47,18.14,265.25-5.65,24.66-13.35,48.82-23,72.21-1.65,4,1.78,8.8,5.59,9.85,4.6,1.26,8.19-1.58,9.85-5.59h0Z"/>
      <path d="M56.7,453.18c-31.03-78.07-44.67-162.51-39.63-246.38,1.19-19.75,3.06-39.66,7.06-59.06,3.73-18.08,9.6-35.72,20.42-50.86,10.6-14.82,26.34-25.14,41.98-33.96,18.19-10.25,36.88-19.77,55.61-29,9.86-4.85,19.8-9.87,30.07-13.79,8.18-3.13,18.04-6.29,26.6-2.68,7.51,3.16,12.13,10.84,15.79,17.71,4.47,8.4,8.33,17.18,12,25.95,16.07,38.44,26.72,79.1,32.89,120.27,12.83,85.64,5.25,173.3-11.78,257.8-2.25,11.18-4.67,22.33-7.24,33.44-1.93,8.36-3.62,17.09-7.18,24.95-3.33,7.34-8.43,13.71-16.33,16.25-8.23,2.65-17.04,2.15-25.53,1.33-38.49-3.73-76.16-16.82-109.09-37-8.17-5.01-20.56-16.49-26.05-24.05-2.54-3.5-12.1-5.21-14.08-1.82-2.42,4.13,5.97,20.31,9.41,22.95,32.66,25.18,70.24,43.25,110.65,51.55,10.44,2.15,21.06,3.74,31.69,4.61,9.4.77,19.45.71,28.43-2.53,19.68-7.1,27.29-25.86,31.83-44.76,21.48-89.38,33.64-182.6,24.73-274.48-4.23-43.65-12.97-86.95-27.55-128.36-3.61-10.24-7.59-20.34-11.86-30.32-4.06-9.49-8.16-19.18-13.48-28.05-4.67-7.79-10.85-15.23-19.17-19.25-10.36-5-21.97-4.33-32.74-1.07-10.94,3.31-21.41,8.57-31.7,13.48s-20.44,10.07-30.55,15.31c-18.35,9.52-37.36,18.59-54.11,30.83-16.42,12-29.57,27.02-37.89,45.7-8.28,18.6-12.28,38.44-14.95,58.53-11.59,87.2-2.67,177.34,25.22,260.74,3.41,10.2,7.12,20.3,11.1,30.29,1.6,4.01,5.35,6.83,9.85,5.59,3.82-1.05,7.2-5.81,5.59-9.85h0Z"/>
      <path d="M153.95,249.61c1.11,11.65,4.76,22.69,10.05,33.11,2.41,4.75,5.2,9.3,8.41,13.55,3.7,4.89,8.09,8.66,12.67,12.69,2.03,1.78,4,3.63,5.74,5.71.37.44.73.9,1.09,1.35.75.94-.36-.48.76.99,2.58,3.39,5.16,6.78,7.87,10.06,4.66,5.65,11.02,13.51,18.73,14.72.71-5.24,1.42-10.48,2.13-15.72-20.05-2.03-40.31-.39-59.83,4.58,2.6,4.46,5.19,8.92,7.79,13.38,7.51-8.2,15-16.41,22.51-24.61,3.37-3.68,6.7-7.18,10.59-10.32,3.6-2.91,7.35-5.63,10.66-8.87,12.73-12.5,19.46-31.12,20.14-48.73.73-18.74-6.9-36.06-18.56-50.34-4.89-5.99-11.11-12.11-18.75-14.32-7.99-2.31-15.49,1.45-20.98,7.16-5.72,5.94-10.12,13.48-13.69,20.88-5.23,10.84-8.16,22.68-7.32,34.76.3,4.31,3.47,8,8,8,4.1,0,8.3-3.67,8-8-1.02-14.84,4.78-28.83,13.34-40.73,1.45-2.02,3.14-4.08,5.12-5.61-.24.19,2.76-1.43,1.79-1.06.97-.38.36-.34,1.48.04,4.45,1.5,9.13,6.91,12.36,11.04,8.96,11.49,14.09,25.28,13.1,39.94-.92,13.58-6.62,27.72-16.76,36.99-3.27,2.99-6.87,5.57-10.28,8.38-3.69,3.05-6.86,6.53-10.09,10.06-7.33,8.01-14.65,16.03-21.98,24.03-5.35,5.84-.14,15.4,7.79,13.38,18.22-4.64,36.88-5.9,55.58-4.01,8.89.9,11.05-14.32,2.13-15.72-.59-.09-1.11-.22-1.67-.42,1.72.6-.19-.21-.5-.46-1.26-.98.52.55-.93-.68-.56-.47-1.11-.97-1.64-1.48-2.73-2.57-5.19-5.44-7.56-8.35-4.33-5.32-8.32-11.48-13.82-16.44-3.64-3.28-7.64-6.21-10.82-9.96-3.1-3.65-5.59-7.93-7.84-12.15-4.38-8.22-7.89-17.47-8.78-26.8-.41-4.3-3.39-8-8-8-4.01,0-8.41,3.67-8,8Z"/>
    </g>
  </g>
</svg>