<?xml version="1.0" encoding="UTF-8"?>
<svg id="Layer_2" data-name="Layer 2" xmlns="http://www.w3.org/2000/svg" viewBox="0 0 374.87 524.49">
  <g id="Layer_1-2" data-name="Layer 1">
    <g>
      <path d="M193.28,272.55c14.6,8.66,22.75,26.63,18.29,43.24-2.16,8.04-6.84,15.24-13.21,20.59-7.29,6.12-19.13,7.13-21.07,18-.81,4.56.73,8.87,1.07,13.38.32,4.24.12,8.48-.79,12.64-1.85,8.39-5.82,16.19-11.87,22.33-12.27,12.46-32.15,15.77-48.12,8.85-16.95-7.35-27.93-27.07-25.28-45.4.77-5.31-2.07-10.17-7.9-10.37-23.7-.78-47.21-12.56-59.4-33.37-11.61-19.84-11.9-45.18,2.16-63.88,7.32-9.73,17.8-16.61,29.64-19.35,5.38-1.25,7.23-7.54,4.89-12.03-8.68-16.67-19.77-39.79-6.66-57.29,4.95-6.6,12.71-7.97,19.93-10.92,4.6-1.88,9.01-4.21,12.25-8.09,4.09-4.89,5.22-10.6,5.93-16.79,1.94-16.99,14.14-30.68,31.01-34.3,17.26-3.71,35.37,6.83,43.74,21.7,9.93,17.63,5.25,40.75-8.28,55.13-5.52,5.86-.09,15.9,7.97,13.69,14.59-4.01,31.72,3.54,37.82,17.66,5.89,13.64.18,31.17-12.24,39.1-8.86,5.65-.65,19.83,8.27,14.14,19.79-12.63,28.07-38.91,18.57-60.49-9.28-21.08-34.86-32.22-56.76-26.2,2.66,4.56,5.31,9.12,7.97,13.69,15.8-16.78,22.77-42.03,15.51-64.26-7.25-22.22-27.62-38.49-50.8-40.92-21.9-2.3-44.62,11.03-53.97,30.86-2.56,5.43-4.06,10.85-4.79,16.79-.55,4.49-.49,8.85-4.6,11.42-3.96,2.49-8.8,3.45-13.11,5.17-5.4,2.15-10.33,4.95-14.38,9.21-8.65,9.1-12.78,22.22-12.28,34.65.63,15.9,7.57,30.48,14.79,44.34,1.63-4.01,3.26-8.02,4.89-12.03-27.51,6.37-48.25,30.8-51.85,58.5-3.88,29.9,11.27,59.34,36.15,75.67,14.1,9.26,30.85,14.05,47.64,14.6-2.63-3.46-5.26-6.91-7.9-10.37-3.26,22.54,5.64,45.09,24.08,58.71,18.22,13.46,44.39,14.28,64.01,3.44,19.27-10.65,31.32-33.11,30.21-55.02-.15-2.91-.56-5.82-1.06-8.69-.15-.84-.37-1.7-.39-2.54.01.5-1.32.44.15.19,4.74-.82,10.05-4.93,13.77-7.81,8.82-6.82,15.33-16.05,19.04-26.56,8.58-24.34-2.91-52.17-24.76-65.13-9.09-5.39-17.33,8.76-8.27,14.14h0Z"/>
      <path d="M132.21,89.16c29.03-13.9,58.07-27.81,87.1-41.71,14.52-6.95,29.03-13.9,43.55-20.85,11.86-5.68,25.04-12.94,38.58-9.41,24.44,6.37,36.75,33.81,42.34,56.05,6.86,27.29,8.52,56.17,10.76,84.12,4.94,61.64,5.68,123.74-.06,185.36-2.84,30.52-7.35,60.86-13.72,90.84-5.16,24.28-9.79,56.56-33.44,70.26-11.66,6.75-24.62,4.52-36.53-.46-14.25-5.96-27.77-14.07-41.43-21.25-14.23-7.47-28.45-14.95-42.68-22.42-6.99-3.67-13.98-7.35-20.98-11.02-5.32-2.79-11.05-5.42-15.6-9.42-3.62-3.18-5.79-6.03-5.32-10.61.45-4.41-4.09-8.19-8.19-8.19-4.8,0-7.73,3.77-8.19,8.19-1.43,13.91,10.54,23.98,21.45,30.14,14.57,8.23,29.66,15.63,44.47,23.41,15.19,7.98,30.38,15.96,45.57,23.95,14.24,7.48,28.7,15.92,44.92,17.97,14.86,1.87,28.7-3.11,39.92-12.8,11.17-9.64,18.03-23.17,22.65-36.96,5.05-15.05,8.13-30.89,11.21-46.43,3.21-16.16,5.87-32.42,8.07-48.74,8.87-65.69,10.02-132.16,5.92-198.26-1.95-31.48-4.32-63.3-9.44-94.44-4.45-27.07-13.73-56.26-36.08-73.94-12.07-9.55-26.42-14.44-41.82-11.84-15.96,2.7-31,11.91-45.43,18.83-31,14.85-62,29.69-93.01,44.54-7.63,3.65-15.25,7.31-22.88,10.96-3.99,1.91-5.04,7.61-2.94,11.2,2.39,4.08,7.2,4.85,11.2,2.94h0Z"/>
      <path d="M283.01,298.53c-3.24-.07-6.27.81-9.14,2.23-2.87,1.42-5.01,3.7-6.87,6.24-.28.65-.55,1.3-.83,1.96-.1.73-.19,1.45-.29,2.18,0,1.82.66,3.54,1.76,4.96,2.01,2.6,5.39,3.78,8.61,2.93,3.62-.95,7.21-2.5,10.34-4.56,3.14-2.06,6.08-4.53,8.41-7.5.8-.74,1.36-1.62,1.69-2.64.51-.98.75-2.03.71-3.15,0-2.01-.89-4.41-2.4-5.79-1.56-1.43-3.61-2.5-5.79-2.4-2.02.09-4.48.73-5.79,2.4-1.43,1.83-3.08,3.46-4.9,4.89.55-.43,1.1-.85,1.66-1.28-1.97,1.52-4.1,2.77-6.38,3.75.65-.28,1.3-.55,1.96-.83-1.25.52-2.54.96-3.85,1.31,3.08,4.01,6.16,8.02,9.25,12.03.09-.13.18-.25.28-.37-.43.55-.85,1.1-1.28,1.66.53-.66,1.13-1.25,1.8-1.78-.55.43-1.1.85-1.66,1.28.74-.56,1.53-1.02,2.38-1.4-.65.28-1.3.55-1.96.83.93-.39,1.88-.65,2.88-.79-.73.1-1.45.19-2.18.29.54-.06,1.07-.09,1.61-.08,2.07.04,4.34-.94,5.79-2.4,1.42-1.42,2.49-3.75,2.4-5.79-.09-2.12-.79-4.31-2.4-5.79-1.62-1.49-3.56-2.35-5.79-2.4h0Z"/>
      <path d="M267.94,270.01c-1.85-.06-3.73.2-5.54.55-1.85.35-3.55,1.1-5.27,1.86-1.09.48-2.13,1.08-3.09,1.79-1.5,1.11-2.97,2.23-4.18,3.67-.91,1.07-1.73,2.24-2.11,3.61-.1.73-.19,1.45-.29,2.18-.04,1.13.19,2.18.71,3.15.19.69.55,1.3,1.05,1.81.36.62.85,1.1,1.47,1.47.51.51,1.11.86,1.81,1.05.98.51,2.03.75,3.15.71,6.09.19,12.13-2.32,16.47-6.54,1.49-1.45,2.4-3.72,2.4-5.79s-.89-4.41-2.4-5.79c-1.56-1.43-3.61-2.5-5.79-2.4s-4.19.85-5.79,2.4c-.38.37-.78.72-1.2,1.05.55-.43,1.1-.85,1.66-1.28-1.01.78-2.09,1.41-3.26,1.92l1.96-.83c-1.23.52-2.51.87-3.84,1.06.73-.1,1.45-.19,2.18-.29-.79.1-1.59.14-2.39.11,1.93,4.66,3.86,9.32,5.79,13.98.71-.84,1.5-1.59,2.37-2.27-.55.43-1.1.85-1.66,1.28,1.08-.82,2.26-1.5,3.51-2.03-.65.28-1.3.55-1.96.83,1.26-.51,2.56-.87,3.91-1.06-.73.1-1.45.19-2.18.29.83-.11,1.67-.15,2.51-.12,2.06.07,4.35-.96,5.79-2.4,1.42-1.42,2.49-3.75,2.4-5.79-.09-2.12-.79-4.31-2.4-5.79-1.63-1.5-3.55-2.33-5.79-2.4h0Z"/>
      <path d="M270.73,240.88c-.9-.26-1.78-.57-2.65-.93.65.28,1.3.55,1.96.83-1.93-.82-3.73-1.88-5.4-3.16.55.43,1.1.85,1.66,1.28-1.59-1.25-3.02-2.68-4.27-4.28.43.55.85,1.1,1.28,1.66-.61-.8-1.18-1.64-1.69-2.51-3.73,3.73-7.47,7.47-11.2,11.2,3.63,2.21,7.26,4.43,10.89,6.64,1.79,1.09,4.3,1.38,6.31.83,1.9-.52,3.96-1.99,4.89-3.76,1-1.9,1.51-4.2.83-6.31-.66-2.05-1.89-3.75-3.76-4.89-3.63-2.21-7.26-4.43-10.89-6.64-.65-.28-1.3-.55-1.96-.83-1.09-.34-2.18-.39-3.27-.15-1.72.23-3.49.94-4.7,2.25-.96,1.05-1.67,2.26-2.11,3.61-.64,1.97-.2,4.56.83,6.31,4.15,7.07,11.02,12.37,18.89,14.64,2.03.58,4.5.24,6.31-.83,1.7-.99,3.32-2.94,3.76-4.89.48-2.1.37-4.45-.83-6.31s-2.79-3.16-4.89-3.76h0Z"/>
      <path d="M294.18,219.48c-2.04-1.98-4.07-3.95-6.11-5.93-.98-.95-1.96-1.91-2.95-2.86-.98-.95-2.08-1.86-2.91-2.94.43.55.85,1.1,1.28,1.66-.14-.2-.25-.39-.35-.61.28.65.55,1.3.83,1.96-.06-.14-.1-.28-.13-.43.1.73.19,1.45.29,2.18-.03-.15-.03-.3-.01-.46-.1.73-.19,1.45-.29,2.18.01-.14.05-.27.1-.4-.28.65-.55,1.3-.83,1.96.05-.13.12-.25.2-.36-.43.55-.85,1.1-1.28,1.66.14-.17.27-.3.44-.44-.55.43-1.1.85-1.66,1.28.18-.12.35-.22.55-.31-.65.28-1.3.55-1.96.83.21-.07.4-.12.62-.16-.73.1-1.45.19-2.18.29.28-.02.53-.02.81,0-.73-.1-1.45-.19-2.18-.29.64.1,1.23.31,1.83.56-.65-.28-1.3-.55-1.96-.83,1.96.85,3.8,1.93,5.49,3.24-.55-.43-1.1-.85-1.66-1.28,1.49,1.17,2.83,2.49,4.02,3.95,1.25,1.53,3.9,2.4,5.79,2.4,2.01,0,4.41-.89,5.79-2.4,1.43-1.56,2.5-3.61,2.4-5.79-.1-.73-.19-1.45-.29-2.18-.39-1.39-1.09-2.59-2.11-3.61-1.9-2.33-4.22-4.24-6.67-5.96-.97-.68-1.99-1.3-3.05-1.83-.79-.4-1.61-.74-2.43-1.09-.93-.39-1.81-.8-2.81-.97-1.97-.33-3.61-.42-5.58.08-1.64.42-3.42,1.5-4.6,2.7s-2.17,2.83-2.58,4.5c-.62,2.53-.2,5,.95,7.3.84,1.67,2.27,2.99,3.6,4.28,1.02.99,2.04,1.98,3.05,2.97,2.32,2.25,4.63,4.5,6.95,6.75,1.52,1.48,3.66,2.4,5.79,2.4,2.01,0,4.41-.89,5.79-2.4,1.43-1.56,2.5-3.61,2.4-5.79-.1-2.15-.82-4.25-2.4-5.79h0Z"/>
      <path d="M321.1,270.12c-1.96.41-.14-.31.17.1.04.05-1.69-.28-.74-.02,1.1.29-1.36-.64-.31-.17.27.12.5.34.78.45-.11-.04-1.05-1.01-.47-.36.17.19.44.49.65.63-.43-.3-.69-1.13-.17-.22.42.73.74,1.51.19.23.65,1.53-.23-.27.05-.4-.01,0,.01.88.02.94.16.96-.07-.62.14-.63-.01,0-.19.84-.21.9-.08.3-.2.59-.28.89.18-.62.56-1.06.03-.27-.17.25-.35.53-.5.79-.54.95.96-.85.1-.18-.24.18-1.63,1.41-.82.84.82-.58-.8.39-1.04.55-.72.49.37-.16.51-.19-.46.11-.93.27-1.37.41-.4.13-1.52.16.07.06-.36.02-.71.05-1.07.06-.36,0-.71,0-1.07,0-.13,0-1.33-.09-.34.01.97.1-.19-.04-.34-.08-.35-.08-.7-.16-1.06-.26-.35-.09-.69-.21-1.04-.31-1.43-.39.37.3-.4-.12-.63-.35-1.29-.65-1.91-1.03-.28-.17-1.85-1.21-1.24-.78.6.43-.85-.73-1.11-.96-.71-.65-1.39-1.33-2.04-2.03-.49-.53-.96-1.08-1.43-1.63-.23-.28-.46-.56-.68-.84.09.12.69.98.19.21-.97-1.5-2.05-2.91-2.88-4.51-.18-.34-.39-.7-.52-1.06.11.29.21.88.14.13-.03-.35-.21-.77-.29-1.11.04.19.05,1.22.09.29.05-1.09-.11.28-.12.28-.16-.12.38-1.19-.15-.02.14-.32.32-.62.5-.92.08-.14.89-1.36.36-.62-.45.62.75-.83.98-1.07.52-.56,1.05-1.1,1.59-1.64,1.33-1.35,2.69-2.66,4.08-3.95,1.29-1.19,2.61-2.36,3.95-3.5.6-.51,1.21-1.01,1.81-1.51-1.06.89.68-.48,1.05-.73.62-.41,1.26-.81,1.92-1.16.21-.11,1.62-.69.68-.36-.86.3.28-.05.38-.08,1.51-.47-.94-.05.63-.14.19-.01,1.33.12.3-.04s.29.16.49.2c.87.2-.42-.14-.52-.2.42.25,1.03.85-.1-.21.6.56,1.07,1.34.41.2.15.25.31.58.49.8.51.66-.16-.34-.19-.52.05.29.15.63.24.91.35,1.07-.15-1.42-.11-.3.03,1,.04-.64.13-.62.07.02-.3,1.06-.32,1.22.03-.17.7-1.2.2-.51-.17.23-.35.56-.48.81.09-.17.95-.93.3-.43-.23.18-.46.45-.68.65.21-.2.7-.96.37-.38-.36.19-.37.21-.02.05.5-.2.33-.15-.5.13-3.53.89-7.05,1.27-10.27,3.16-4.11,2.42-6.86,6.49-7.15,11.31-.47,7.87,7.57,16.21,14.86,18.09,5.9,1.52,12.42-1.78,13.95-7.87,1.2-4.78-.77-9.98-4.37-13.21-1.62-1.45-3.49-2.46-5.31-3.62-.28-.18-.56-.35-.82-.55.61.46.66.64.19,0,.39.54.5.71.81,1.37-.43-.93.06-.39-.06.26.04-.23-.13-1.24-.08-.23.04,1,.13-.26.16-.54.09-.82-.09.22-.22.42.25-.4.47-.82.73-1.22-.22.33-.99,1.02.07.02.34-.32.71-.64,1.04-.98-.09.09-1.02.7-.24.17.5-.33.99-.67,1.49-.99-3.31-4.29-6.62-8.57-9.92-12.86-4.06,3.26-6.82,7.8-9.83,11.98-.2.28-1.27,1.59-.22.33-.3.36-.59.73-.9,1.08-.78.89-1.62,1.69-2.48,2.49-1.07,1,.5-.17-.27.19-.46.22-1.06.58-1.47.86.57-.38.95-.29.08-.05-.67.19-1.31.34-2,.45-4.24.68-6.98,6.18-5.72,10.07,1.49,4.6,5.53,6.45,10.07,5.72,5.84-.94,10.9-4.98,14.49-9.5,1.87-2.35,3.55-4.82,5.3-7.26.11-.15,1.29-1.72.67-.93-.62.79.61-.72.73-.86.96-1.09,2-2.08,3.13-2.99,3.17-2.54,2.9-7.83.64-10.75-2.4-3.11-7.09-4.31-10.56-2.11-4.12,2.61-7.73,5.89-9.66,10.45-1.97,4.68-1.99,10.5.95,14.82,1.44,2.12,3.24,3.69,5.36,5.11.74.5,1.53.92,2.28,1.39.28.18.56.38.84.54.9.53-1.05-.95-.02.11-.18-.18-1.06-1.4-.31-.17-.29-.47-.41-.88-.5-1.41-.32-1.9.51-2.14,1.95-3.6.62-.64,1.25-1.27,1.87-1.91,2.58.23,3.31.2,2.19-.1-.86-.17.25.05.37.15-.36-.29-.83-.51-1.21-.78.29.21,1.08.97.05-.04-.41-.41-.85-.79-1.26-1.21-.24-.25-.47-.52-.71-.77.99,1.05.3.31.07,0-.39-.52-.23-1.16.04.17.1.47.1.9.03,1.37-.1.67-.5,1.08-.78,1.64-.63,1.27.68-.81-.25.18-.62.67-.1.1.17-.07,1.53-.95-.91.15.04-.06,4.75-1.07,9.29-1.92,13.2-5.07,7.72-6.23,7.94-18.15,1.19-25.11-7.26-7.49-18.13-5.88-25.85-.13-3.65,2.72-7.09,5.73-10.37,8.88-3.03,2.91-6.42,6.04-8.3,9.85-4.88,9.92.78,19.49,7.25,27.03,5.65,6.6,13.85,11.47,22.73,11.44,10.77-.03,20.1-7.85,21.13-18.69.47-4.97-1.78-10.36-5.48-13.69-4.33-3.89-9.67-5.41-15.37-4.21-4.2.88-7.02,6.05-5.72,10.07,1.44,4.44,5.57,6.66,10.07,5.72h0Z"/>
    </g>
  </g>
</svg>