<?xml version="1.0" encoding="UTF-8"?>
<svg id="Layer_2" data-name="Layer 2" xmlns="http://www.w3.org/2000/svg" viewBox="0 0 378.35 499.66">
  <g id="Layer_1-2" data-name="Layer 1">
    <g>
      <path d="M97.03,10.92c23.28,66.11,46.43,132.27,69.83,198.34,5.48,15.47,11.67,31.36,24.2,42.57,5.09,4.55,12.12,2.4,14.42-3.81,22.54-60.9,45.07-121.8,67.61-182.7,6.45-17.44,12.91-34.88,19.36-52.32,1.62-4.37-1.81-9.45-6.02-10.61-4.82-1.32-8.99,1.64-10.61,6.02-22.54,60.9-45.07,121.8-67.61,182.7-6.45,17.44-12.91,34.88-19.36,52.32,4.81-1.27,9.61-2.54,14.42-3.81-9.97-8.91-14.92-21.33-19.31-33.66-5.67-15.92-11.22-31.87-16.84-47.81-11.37-32.3-22.75-64.61-34.12-96.91-6.44-18.31-12.89-36.61-19.33-54.92-1.55-4.39-5.89-7.32-10.61-6.02-4.26,1.17-7.58,6.2-6.02,10.61h0Z"/>
      <path d="M184.65,226.7c-9.26,8.65-19.08,19.12-21.36,32.09-2.19,12.45,1.37,25.85,12.3,33.16,11.39,7.61,27.78,3.92,36.72-5.78,9.05-9.83,12.45-24.92,9.14-37.83-2.05-8.02-7.49-14.64-15.41-17.35-7.44-2.54-15.64-.93-23.03.96-4.37,1.12-7.44,6.24-6.02,10.61,1.46,4.52,5.92,7.22,10.61,6.02,2.29-.58,4.58-1.07,6.9-1.5,1.38-.25-1.21.02.18,0,.55,0,1.09-.09,1.64-.11s1.08-.03,1.62-.02c.32,0,2.59.3,1.63.09-1.22-.26,2.64.9,1.58.46-.95-.4.52.33.73.44,1.17.64-1.13-1.3.43.28.36.36.7.71,1.05,1.08-.27-.29-.79-1.3-.01.06.25.44.5.87.75,1.31.76,1.34-.03-.49.17.4.25,1.13.64,2.24.9,3.38.08.35.18,1.66.04.03.05.52.1,1.03.13,1.55.06,1.06.07,2.12.04,3.17-.02.54-.04,1.09-.08,1.63-.01.17-.38,2.73-.06.96-.38,2.16-.91,4.24-1.6,6.32-.52,1.58-.19.55-.04.2-.22.49-.45.98-.7,1.46-.62,1.19-1.31,2.34-2.09,3.44.8-1.14.05-.05-.14.16-.36.4-.72.8-1.09,1.19-.28.29-2.56,2.14-1.2,1.17-.94.67-1.93,1.26-2.96,1.79-.22.11-1.7.7-.73.35s-.95.28-1.14.33c-.61.18-1.26.26-1.86.45-1.23.41,1.32-.03.03.02-.98.04-2.05-.03-3.02.06-1.26.11,1.29.34.05.05-.61-.14-1.22-.25-1.83-.42-.48-.14-.96-.3-1.43-.48,1.12.45.32.09-.3-.27-.39-.23-.76-.53-1.16-.74-.95-.5.69.99.15.09-.21-.35-2.41-2.71-1.14-.98-.53-.73-1.02-1.49-1.46-2.27-.22-.4-.41-.81-.62-1.21.67,1.3.12.3-.15-.49-.29-.88-.53-1.78-.72-2.68-.1-.46-.17-.92-.25-1.38.06.32.14,1.82.06.2-.05-.94-.1-1.88-.08-2.82.01-.47.05-.94.07-1.41.07-2.26-.4,1.71.04-.51.23-1.15.48-2.28.83-3.4.17-.55.37-1.09.56-1.64.48-1.37-.07.06.3-.72,1.19-2.47,2.6-4.78,4.17-7.02.98-1.39.46-.64.22-.33.53-.69,1.1-1.36,1.66-2.02.95-1.11,1.93-2.19,2.94-3.24,2.01-2.11,4.12-4.13,6.25-6.12,3.31-3.09,3.35-9.12,0-12.2-3.54-3.25-8.67-3.29-12.2,0h0Z"/>
      <path d="M179.01,297.07c-11.71,29.81-23.41,59.63-35.12,89.44-10.22,26.04-19.73,54.12-39.57,74.64-16.21,16.77-42.41,28.54-65.01,16.97-19.25-9.86-25.29-33.59-20.44-53.49,6.53-26.79,30.69-44.82,54.24-56.28,4.19-2.04,5.32-8,3.09-11.8-2.5-4.27-7.6-5.14-11.8-3.09-25.42,12.38-48.75,31.26-59.46,58.12-9.44,23.67-5.58,54.37,13.21,72.49,21.8,21.03,56.5,19.31,80.79,3.73,27.06-17.35,41.57-46.61,53.21-75.47,14.82-36.75,29.01-73.77,43.49-110.66,1.7-4.34-1.87-9.47-6.02-10.61-4.89-1.34-8.9,1.67-10.61,6.02h0Z"/>
      <path d="M195.59,292.31c9.25,32.09,18.5,64.17,27.75,96.26,7.35,25.5,13.76,53.13,31.74,73.58,19.14,21.77,51.58,28.38,79.19,22.58,30.05-6.32,47.3-35.01,43.58-64.69-2.04-16.25-9.08-33.23-21.2-44.6s-29.72-15.89-45.54-8.9c-4.26,1.88-5.26,8.1-3.09,11.8,2.57,4.39,7.52,4.98,11.8,3.09,9.66-4.27,20.52,1.56,27.02,8.62,7.7,8.37,12.53,20.32,13.96,31.52,1.45,11.37-.84,23.22-7.71,32.54-6.54,8.88-16.79,13.35-27.52,14.71-22.48,2.85-46.8-3.32-60.86-22.01-13.92-18.49-18.92-42.68-25.2-64.47-9.09-31.54-18.19-63.08-27.28-94.62-3.07-10.65-19.72-6.12-16.63,4.59h0Z"/>
    </g>
  </g>
</svg>