<?xml version="1.0" encoding="UTF-8"?>
<svg id="Layer_2" data-name="Layer 2" xmlns="http://www.w3.org/2000/svg" viewBox="0 0 219.97 505.2">
  <g id="Layer_1-2" data-name="Layer 1">
    <g>
      <path d="M85.62,189.34c4.72-51.6-4.92-103.88-27.09-150.66-1.73-3.65-6.97-4.6-10.24-2.69-3.74,2.19-4.42,6.58-2.69,10.24,21.05,44.43,29.52,94.19,25.04,143.1-.37,4.03,3.7,7.49,7.49,7.49,4.36,0,7.12-3.44,7.49-7.49h0Z"/>
      <path d="M41.61,14.97h97.79c9.63,0,9.65-14.97,0-14.97H41.61c-9.63,0-9.65,14.97,0,14.97h0Z"/>
      <path d="M134.52,13.84c24.53,43.74,37.73,93.48,38.28,143.62.16,14.37-.73,28.74-2.6,42.99-.53,4.02,3.82,7.49,7.49,7.49,4.48,0,6.96-3.46,7.49-7.49,6.75-51.57.23-104.95-18.58-153.43-5.43-14.01-11.8-27.63-19.15-40.73-4.71-8.4-17.65-.87-12.93,7.56h0Z"/>
      <path d="M29.74,13.44C8.55,43.89,7.26,78.08,4.42,114.78,1.11,157.47-.29,200.34.05,243.16c.34,42.97,2.71,85.82,6.39,128.62,1.73,20.14,3.1,40.34,6.46,60.3,3.1,18.4,8.71,35.69,15.77,52.92,3.28,7.99,7.27,16.08,16.11,18.85,8.1,2.54,17,.8,25.27.41,11.14-.52,22.43.06,33.58.12,12.39.07,24.79.14,37.18.21,9.64.06,9.65-14.92,0-14.97-21.07-.12-42.14-.24-63.21-.36-7.33-.04-14.58.85-21.9.88-2.53.01-6.15-.23-7.37-.88-1.39-.74-2.9-3.38-4.12-5.87-7.46-15.19-12.44-32.05-15.66-48.6-3.61-18.55-5.01-37.42-6.56-56.22-3.41-41.15-6.18-82.24-6.82-123.54-.65-41.57.4-83.17,3.12-124.66,2.57-39.13,5.51-81.06,28.86-114.14,2.33-3.3,1.39-11.29-1.89-13.21-3.75-2.19-8.65-.89-11.56,2.8l-3.95,7.61Z"/>
      <path d="M169.36,322.45c-.95,57.03-4.65,116.61-33.87,167.14-4.83,8.36,6.74,19.48,11.57,11.13,30.57-52.86,36.28-118.57,37.28-178.27.16-9.64-14.81-9.64-14.97,0h0Z"/>
      <path d="M124.97,433.95c0-9.63-14.97-9.65-14.97,0s14.97,9.65,14.97,0h0Z"/>
      <path d="M122.75,96.55c0-9.63-14.97-9.65-14.97,0s14.97,9.65,14.97,0h0Z"/>
      <path d="M64.01,466.73c9.29-49.33,15.91-99.16,19.82-149.21.32-4.04-3.67-7.49-7.49-7.49-4.31,0-6.92-4.8-7.23-.75-3.81,48.73-10.49,105.44-19.53,153.47-.75,3.97,1.1,8.08,5.23,9.21,3.65,1,8.46-1.24,9.21-5.23h0Z"/>
      <path d="M51.22,188.51c-2.19,45.83-3.52,96.78,26.22,134.99,7.56,9.72,19.57,17.86,32.33,13.3,3.81-1.36,6.36-5.1,5.23-9.21-1.01-3.68-5.38-6.59-9.21-5.23-10.58,3.78-18.54-9.97-22.96-17.43-6.35-10.72-10.54-22.46-13.32-34.58-6.13-26.79-4.63-54.61-3.33-81.85.46-9.63-14.51-9.61-14.97,0h0Z"/>
      <path d="M80.26,217.4c-2.6,16.98-1.87,34.23,2.87,50.8,4.21,14.69,11.28,31.63,25.84,38.75,13.57,6.63,32.32,6.22,46.15.53,13.81-5.68,22.26-18.19,25.52-32.46,4.3-18.88-.52-38,.95-57.05.31-4.04-3.66-7.49-7.49-7.49-4.31,0-7.17,3.44-7.49,7.49-1.17,15.12,1.91,30.19.76,45.3-.75,9.88-4.03,21.18-12.34,27.37-9.05,6.74-24.11,7.55-34.69,4.69-12.42-3.35-17.92-16.01-21.6-27.24-4.91-14.98-6.45-31.1-4.06-46.71.61-3.99-1.01-8.05-5.23-9.21-3.54-.97-8.59,1.21-9.21,5.23h0Z"/>
      <path d="M126.01,267.28c-.24,26.6-.48,53.19-.72,79.79-.09,9.64,14.89,9.65,14.97,0,.24-26.6.48-53.19.72-79.79.09-9.64-14.89-9.65-14.97,0h0Z"/>
      <path d="M138.51,340.75c25.91,4.85,48.26-14.03,61.39-34.53,13.75-21.49,19.1-47.25,19.94-72.45.54-16.26-.76-32.5-2.37-48.66-.4-4.02-3.15-7.49-7.49-7.49-3.74,0-7.89,3.44-7.49,7.49,4.38,43.88,6.62,97.6-29.39,129.95-8.08,7.26-19.44,13.36-30.62,11.26-3.97-.74-8.07,1.1-9.21,5.23-1,3.65,1.23,8.46,5.23,9.21h0Z"/>
    </g>
  </g>
</svg>