<?xml version="1.0" encoding="UTF-8"?>
<svg id="Layer_2" data-name="Layer 2" xmlns="http://www.w3.org/2000/svg" viewBox="0 0 137.09 455.83">
  <defs>
    <style>
      .cls-1 {
        fill: none;
        stroke: #000;
        stroke-linecap: round;
        stroke-linejoin: round;
        stroke-width: 14px;
      }
    </style>
  </defs>
  <g id="Layer_1-2" data-name="Layer 1">
    <g>
      <path d="M85.02,171.78h-26.66c-3.65,0-7.16,3.21-6.99,6.99.17,3.79,3.07,6.99,6.99,6.99h26.66c3.65,0,7.16-3.21,6.99-6.99-.17-3.79-3.07-6.99-6.99-6.99h0Z"/>
      <path d="M87.6,232.85h-25.8c-3.65,0-7.16,3.21-6.99,6.99.17,3.79,3.07,6.99,6.99,6.99h25.8c3.65,0,7.16-3.21,6.99-6.99-.17-3.79-3.07-6.99-6.99-6.99h0Z"/>
      <path d="M88.46,300.8h-28.38c-3.65,0-7.16,3.21-6.99,6.99.17,3.79,3.07,6.99,6.99,6.99h28.38c3.65,0,7.16-3.21,6.99-6.99-.17-3.79-3.07-6.99-6.99-6.99h0Z"/>
      <path d="M73.08,128.88c0-40.71,0-81.42,0-122.13,0-8.99-13.97-9.01-13.97,0,0,40.71,0,81.42,0,122.13,0,8.99,13.97,9.01,13.97,0h0Z"/>
      <path d="M59.11,382.61v57.63c0,8.99,13.97,9.01,13.97,0v-57.63c0-8.99-13.97-9.01-13.97,0h0Z"/>
      <path d="M6.75,455.83h110.95c8.99,0,9.01-13.97,0-13.97H6.75c-8.99,0-9.01,13.97,0,13.97h0Z"/>
      <rect class="cls-1" x="7.34" y="138.08" width="122.75" height="240.58"/>
    </g>
  </g>
</svg>