<?xml version="1.0" encoding="UTF-8"?>
<svg id="Layer_2" data-name="Layer 2" xmlns="http://www.w3.org/2000/svg" viewBox="0 0 382.93 391.46">
  <g id="Layer_1-2" data-name="Layer 1">
    <g>
      <path d="M93.7,349.23V51.01c0-7.96-12.38-7.98-12.38,0v298.22c0,7.96,12.38,7.98,12.38,0h0Z"/>
      <path d="M97.37,51.75c17.29-8.97,35.22-16.56,53.73-22.65,9.41-3.1,18.95-5.82,28.59-8.16,9.54-2.31,19.2-3.86,28.79-5.9,8.16-1.74,16.23-4.19,24.5-1.8,8.77,2.54,16.74,7.17,24.99,10.95,18.3,8.39,38.16,14.22,57.6,19.34,22.21,5.86,33.8,10.06,56.6,12.82,3.32.4,10.68.8,10.68-2.25,0-3.68-7.35-9.72-10.68-10.12-20.11-2.43-29.06-6.21-48.7-11.18-10.06-2.55-20.04-5.42-29.92-8.6-9.51-3.07-19.23-6.13-28.35-10.24-8.64-3.89-16.94-8.57-25.92-11.69-9.43-3.27-18.28-2.61-27.91-.53-19.32,4.16-38.6,7.63-57.52,13.5-21.62,6.71-42.64,15.4-62.73,25.83-7.07,3.67-.82,14.36,6.25,10.69h0Z"/>
      <path d="M369.5,55.12v237.51c0,6.86-.26,13.78.07,20.64.22,4.72.79,9.42.96,14.15.16,4.58.23,9.5-1.36,13.23-.62,1.46-1.48,2.38-2.27,2.89-2.03,1.29-3.53,1.74-5.94,2.35-10.03,2.54-20.6,1.76-30.75,3.65-33.74,6.3-66.6,16.73-98.02,30.51-3.06,1.34-3.77,5.82-2.22,8.47,1.85,3.16,6.39,3.57,9.47,2.22,28.25-12.38,56.87-21.69,87.08-27.88,6.15-1.26,10.37-2,16.4-2.43,5.8-.41,11.61-.8,17.35-1.77,5.41-.92,10.91-2.59,15.2-6.14,3.85-3.19,5.89-8.08,6.73-12.9,1.81-10.35-.32-20.75-.32-31.14V55.12c0-7.96-12.38-7.98-12.38,0h0Z"/>
      <path d="M230.43,377.79c-45.94-4.41-97.27-14.3-139.44-33.07-3.05-1.36-6.65-.89-8.47,2.22-1.54,2.64-.85,7.1,2.22,8.47,44.31,19.72,97.4,30.13,145.69,34.76,3.33.32,6.19-3.07,6.19-6.19,0-3.61-2.85-5.87-6.19-6.19h0Z"/>
      <path d="M70.14,262.08c-11.37,4.01-23.28.87-32.89-5.94-10.41-7.37-16.65-19.54-20.17-31.5-3.82-12.95-5.41-26.79-4.46-40.26.89-12.52,4.78-25.58,13.44-34.97,8.63-9.35,21.6-15.7,34.47-12.74,7.75,1.78,11.06-10.15,3.29-11.94-14.82-3.4-29.6,1.46-41.17,10.91-12.06,9.85-19,24.66-21.37,39.85-2.5,16.05-1.19,32.79,2.79,48.51,3.7,14.62,10.65,29.4,22.38,39.3,12.79,10.79,30.72,16.45,46.99,10.71,3.15-1.11,5.25-4.23,4.32-7.61-.84-3.05-4.45-5.44-7.61-4.32h0Z"/>
      <path d="M163.92,219.43c.19-13.89.38-27.79.56-41.68-2.06,2.06-4.13,4.13-6.19,6.19,18.95.67,37.89,1.34,56.84,2.01,3.34.12,6.19-2.93,6.19-6.19-.02-20.48-.03-40.95-.05-61.43-2.06,2.06-4.13,4.13-6.19,6.19,14.58.2,29.17.41,43.75.61-2.06-2.06-4.13-4.13-6.19-6.19.15,19.36-.94,38.69-3.24,57.92-.4,3.35,3.16,6.15,6.19,6.19,19.72.23,39.43.46,59.15.7-2.06-2.06-4.13-4.13-6.19-6.19.2,8.42.4,16.83.59,25.25.1,4.11.2,8.21.29,12.32.03,1.31-.18,2.82-.13,4.04,0,.18-.27.72-.29.76.75-1.09.47-.32.16-.29-3.59.36-7.41-.32-10.99-.58-4.04-.3-8.08-.59-12.13-.89-8.49-.62-16.98-1.25-25.46-1.87-3.43-.25-6.07,3.04-6.19,6.19-.33,8.44-.66,16.89-.99,25.33-.32,8.15-.14,16.49-.99,24.59-.2,1.87-1.13,1.64-3.02,1.64-3.59,0-7.19-.32-10.78-.5-7.36-.36-14.72-.73-22.08-1.09,2.06,2.06,4.13,4.13,6.19,6.19-.72-14.18,1.63-28.42,1.22-42.63-.18-6.13.01-15.21-4.93-19.69-5.92-5.36-14.59-2.97-21.69-2.57-12.88.73-25.99.05-38.9.05-7.96,0-7.98,12.38,0,12.38,10.87,0,21.74,0,32.6,0,3.74,0,7.34-.12,11.06-.51,1.58-.17,3.17-.33,4.76-.39.82-.03,1.64-.02,2.46.01.33.01.67.02,1,.08-.66-.11-.14.01.2.11.9.27.21-.1.12-.02.15-.13.73.7.25.12-.06-.08-.46-.53-.54-.57-.27-.12,0-.79-.1-.22-.16.91.66,2.75.82,3.72s-.1-.88.03.19c.04.32.07.64.11.96.07.67.13,1.34.17,2.02.12,1.69.19,3.39.23,5.09.17,7.3-.2,14.61-.58,21.9-.35,6.62-1,13.34-.66,19.98.18,3.47,2.7,6.02,6.19,6.19,8.25.41,16.49.82,24.74,1.22,7.95.39,18.03,1.64,22.02-7.14,1.78-3.91,1.6-8.36,1.77-12.57.18-4.74.37-9.47.55-14.21.39-9.88.77-19.77,1.16-29.65-2.06,2.06-4.13,4.13-6.19,6.19,9.5.7,19,1.39,28.5,2.09,4.65.34,9.3.68,13.94,1.02,4.32.32,8.77.65,12.68-1.63,7.89-4.62,6.11-15.41,5.93-23.03-.23-9.85-.46-19.71-.7-29.56-.08-3.37-2.77-6.15-6.19-6.19-19.72-.23-39.43-.46-59.15-.7,2.06,2.06,4.13,4.13,6.19,6.19,2.3-19.22,3.39-38.56,3.24-57.92-.03-3.38-2.82-6.14-6.19-6.19-14.58-.2-29.17-.41-43.75-.61-3.34-.05-6.19,2.87-6.19,6.19.02,20.48.03,40.95.05,61.43,2.06-2.06,4.13-4.13,6.19-6.19-18.95-.67-37.89-1.34-56.84-2.01-3.38-.12-6.15,2.93-6.19,6.19-.19,13.89-.38,27.79-.56,41.68-.11,7.97,12.27,7.97,12.38,0h0Z"/>
    </g>
  </g>
</svg>