<?xml version="1.0" encoding="UTF-8"?>
<svg id="Layer_2" data-name="Layer 2" xmlns="http://www.w3.org/2000/svg" viewBox="0 0 357.74 479.41">
  <g id="Layer_1-2" data-name="Layer 1">
    <g>
      <path d="M176.73,109.33c-20.97,1.49-41.42-6.54-55.25-22.48-6.42-7.4-11.05-16.4-13.59-25.85-2.55-9.5-3.64-20.7,1.58-29.52,10.71-18.08,36.65-19.57,54.29-12.6,18.35,7.26,34.15,24.63,40.61,43.16,3.62,10.38,4.55,22.12-1.15,31.93-4.63,7.97-17.6,15.77-27.05,15.38-9.68-.4-9.66,14.64,0,15.04,25.92,1.08,48.34-27.45,45.93-51.29-2.62-25.9-20.66-50.34-42.88-63.29-22.86-13.32-53.95-14.13-74.5,4.09-20.93,18.57-15.34,51.04-2.1,72.47,15.58,25.21,44.51,40.09,74.11,37.99,4.05-.29,7.52-3.25,7.52-7.52,0-3.85-3.45-7.81-7.52-7.52h0Z"/>
      <path d="M94.83,215.31c-20.25,5.51-40.92.3-57.13-13.35-7.57-6.38-13.61-14.16-17.88-23.1-4.28-8.97-7.1-20.22-2.9-29.73,8.16-18.48,32.24-24.84,50.54-21.06,20.23,4.18,39.17,18.4,49.06,36.53,5.03,9.23,7.22,19.98,3.62,30.08-3.11,8.73-15.11,18.39-24.35,19.82-4.02.62-6.24,5.66-5.25,9.25,1.18,4.29,5.22,5.88,9.25,5.25,11.4-1.76,26.1-12.87,31.55-22.82,6-10.96,7.06-23.66,3.74-35.65-6.99-25.24-30.13-45.66-54.2-54.32-23.86-8.57-54.33-4.2-71.01,16.25C.43,144.08-2.06,158.17,1.64,172.59c3.13,12.21,9.68,23.53,18.06,32.87,20.16,22.47,52.15,31.24,81.13,23.36,9.33-2.54,5.37-17.06-4-14.51l-2,1Z"/>
      <path d="M122.8,313.92c-8.67,18.11-24.71,31.71-44.35,36.37-10.75,2.55-22.12,2.27-32.75-.69-9.28-2.58-19.07-7.17-23.99-15.9-10.09-17.93.97-40.5,15.15-52.49,15.46-13.07,39.44-18.44,59.18-14.53,10.37,2.06,20.64,6.9,26.24,16.26,4.8,8.02,6.1,20.99,1,29.13-5.15,8.23,7.86,15.79,12.99,7.59,13.84-22.11-.62-53.29-22.6-63.07-23.96-10.66-54.5-6.85-76.76,6.31C14.61,276.1-.74,301.72,3.96,328.02c5.08,28.47,37.17,40.17,62.97,38.95,29.3-1.38,56.17-18.94,68.87-45.46,1.75-3.66,1.01-8.12-2.7-10.29-3.29-1.92-8.53-.98-10.29,2.7h0Z"/>
      <path d="M195.51,419.77c-6.36,18.15-21.08,34.42-39.31,40.81-10.13,3.55-21.12,4.85-31.77,3.28-9.72-1.43-20.76-4.9-26.74-13.25-12.34-17.2-3.37-41.73,10.34-55.11,14.65-14.29,36.97-21.46,57.23-19.73,10.03.86,20.49,4.94,26.75,13.15,5.3,6.95,8.17,16.99,4.21,25.19-1.77,3.66-1,8.13,2.7,10.29,3.3,1.93,8.52.97,10.29-2.7,5.42-11.22,4.67-23.48-.73-34.57-5.44-11.19-15.5-18.97-27.04-23.12-24.12-8.69-54.76-1.42-75.04,13.37-21.19,15.45-35.57,43.44-27,69.74,9.2,28.23,42.24,35.47,68.48,31.12,28.9-4.79,52.55-27.1,62.14-54.47,1.34-3.83-1.53-8.23-5.25-9.25-4.15-1.14-7.9,2.41-9.25,6.25v-1Z"/>
      <path d="M149.59,243.54c.43,12.25,1.23,24.86,6.83,36.01,5.99,11.93,17.44,17.72,28.13,24.68,21.47,13.99,36.36,35.88,56.7,51.34,19.53,14.85,43.95,22.3,67.8,13.76,22.99-8.23,40.2-27.37,46.18-51.03,3.1-12.28,3.26-25.09.91-37.51-2.35-12.42-9.06-23.37-11.66-35.67-1.33-6.29.14-12.07,2.29-17.99,2.32-6.38,4.73-12.61,6.12-19.28,2.83-13.55,2.9-27.64-.36-41.12-5.59-23.14-21.9-43.83-43.96-53.22-22.79-9.7-49.92-6.38-68.93,9.78-9.01,7.65-15.54,17.81-22.13,27.49-6.5,9.53-13.34,18.24-22.79,25.04-10.8,7.77-21.49,14.8-29.66,25.52-7.14,9.36-12.21,20.52-14.48,32.09-1.19,6.05-1.73,12.22-1.51,18.39.35,9.65,15.4,9.7,15.04,0-.77-21.14,8.79-41.39,25.68-54.17,9.61-7.27,20.02-13.29,28.06-22.43,7.21-8.2,12.9-17.55,19.23-26.41,5.9-8.26,12.7-15.8,21.85-20.48,9.05-4.63,19.82-6.19,29.86-4.88,20.09,2.62,36.56,17.04,45.03,34.97,4.8,10.17,6.54,21.69,6.1,32.86-.24,6.04-1.21,11.98-2.79,17.82-1.61,5.91-4.11,11.48-5.98,17.3-4.05,12.6-1.5,24.38,3.27,36.34,4.17,10.48,7.88,20.7,8.28,32.09.72,20.61-7.51,41.52-24.94,53.38-8,5.45-17.36,9.19-27.09,9.77-10.44.63-20.45-2.23-29.55-7.27-20.4-11.29-34.62-30.36-51.6-45.81-4.48-4.08-9.19-7.93-14.14-11.44-4.8-3.4-9.99-6.18-14.88-9.46-9.09-6.09-13.23-14.57-14.8-25.23-.74-5.02-.89-10.14-1.07-15.21-.34-9.65-15.38-9.7-15.04,0h0Z"/>
    </g>
  </g>
</svg>