<?xml version="1.0" encoding="UTF-8"?>
<svg id="Layer_2" data-name="Layer 2" xmlns="http://www.w3.org/2000/svg" viewBox="0 0 443.42 501.27">
  <defs>
    <style>
      .cls-1 {
        fill: none;
        stroke: #000;
        stroke-miterlimit: 10;
        stroke-width: 10px;
      }
    </style>
  </defs>
  <g id="Layer_1-2" data-name="Layer 1">
    <g>
      <path d="M121,321.36c-40.04-.14-78.86-25.73-93.76-63.13-9.33-23.42-10.82-49.19-11.37-74.12-.6-27.21.89-54.55,4.77-81.5,2.02-14.02,3.89-28.69,8.8-42.04,3.93-10.69,11.61-20.4,23.27-22.61,4.18-.79,6.56-5.82,5.5-9.68-1.2-4.38-5.49-6.29-9.68-5.5C20.59,28.09,12.25,58.51,8.02,82.48,2.86,111.7.12,141.36,0,171.04c-.1,27.71.77,56.83,9.23,83.44,7.23,22.74,20.85,42.58,39.71,57.23,20.57,15.98,45.91,25.3,72.04,25.39,10.13.03,10.14-15.71,0-15.74h0Z"/>
      <path d="M122.8,337.01c24.85,1.06,54.93-9.42,72.22-26.84,17.64-17.78,28.64-41.15,35.49-64.97,7.67-26.66,10.41-54.58,10.89-82.23.24-13.86-.08-27.73-.61-41.58-.53-13.67-.86-27.44-2.17-41.07-2.58-26.83-13.15-56.65-41.66-65.14-9.73-2.9-13.89,12.29-4.18,15.18,20.24,6.03,27.85,28.96,29.88,47.8,1.36,12.61,1.65,25.37,2.18,38.04.54,12.86.93,25.74.9,38.62-.06,25.1-1.72,50.29-7.44,74.79-5.07,21.69-13.04,43.58-27.06,61.19-15.12,18.99-43.62,31.54-68.44,30.48-10.13-.43-4.11,16.31,6,16.74l-6-1Z"/>
      <path d="M162.67,275.83c-15.14,5.32-30.89,8.72-46.93,9.65-12.59.73-29.19.87-36.08-11.87-4.82-8.91-18.42-.97-13.59,7.95,8.87,16.39,28.14,20.4,45.31,19.87,18.87-.59,37.68-4.16,55.48-10.42,4.01-1.41,6.68-5.38,5.5-9.68-1.07-3.89-5.65-6.91-9.68-5.5h0Z"/>
      <path d="M117.84,330.46c-9.18,30.12-4.97,72.87,8.89,100.86,14.17,28.61,38.67,50.96,68.64,61.99,30.22,11.13,64.97,10.34,95.05-.86,31.14-11.6,56.78-33.95,72.81-63.06,20.27-36.8,21.06-82.21,15.83-106.76-2.11-9.9-17.29-11.72-15.18-1.82,12.21,57.28-15.03,127-68.69,152.66-25.94,12.4-56.67,15.44-84.48,8.16-27.29-7.14-50.32-24.5-65.02-48.54-16.08-26.3-21.72-68.72-12.66-98.45,2.96-9.71-12.23-13.86-15.18-4.18h0Z"/>
      <path d="M376.7,187.24c-27.17-7.7-57.97,15.85-65.55,41.62-7.91,26.92,1.91,61.02,23.21,79.45,22.58,19.53,56.77,17.47,80.13.33,23.04-16.91,33.95-45.68,26.72-73.58-7.86-30.33-38.37-51.94-69.72-48.18-4.22.51-7.87,3.26-7.87,7.87,0,3.86,4.44,8.92,7.87,7.87,20.55-6.3,42.38,8.6,51.6,28.16,9.25,19.64,4.48,43.87-10.68,59.08-15.04,15.09-40.6,22.59-60.2,11.88-19.41-10.61-29.05-36.15-27.86-57.34.68-12.05,5.66-23.59,15.14-31.26,8.18-6.63,21.75-13.43,32.01-10.52,9.76,2.77,20.96-10.42,11.21-13.18l-5.99-2.19Z"/>
      <circle class="cls-1" cx="375.38" cy="252" r="17.27"/>
      <circle cx="57.28" cy="20.32" r="20.32"/>
      <circle cx="180.93" cy="20.32" r="20.32"/>
    </g>
  </g>
</svg>