<?xml version="1.0" encoding="UTF-8"?>
<svg id="Layer_2" data-name="Layer 2" xmlns="http://www.w3.org/2000/svg" viewBox="0 0 338.93 519.27">
  <g id="Layer_1-2" data-name="Layer 1">
    <g>
      <path d="M320.83,64.55c0,54.83,0,109.65,0,164.48,0,54.87,0,109.74,0,164.61,0,10.74.47,21.34,1.08,32.06.55,9.5,1.18,19.55-1.49,28.8-4.6,15.93-22.57,26.51-36.91,32.81-16.34,7.18-34.33,11.08-51.95,13.5-22.87,3.15-46.18,3.66-69.19,1.93-46.64-3.5-92.69-16.95-133.8-39.28-5.1-2.77-10.12-5.68-15.07-8.71-8.58-5.24-16.42,8.23-7.86,13.45,42.04,25.68,89.29,41.87,138.09,48.2,24.12,3.13,48.56,3.72,72.8,1.63,19.9-1.72,39.92-4.88,58.94-11.13,18.36-6.03,37.33-15.1,49.86-30.32,6.72-8.17,10.54-16.76,11.86-27.27,1.3-10.33.49-20.76-.18-31.1-1.71-26.22-.61-52.75-.61-79.01,0-28.19,0-56.38,0-84.57,0-56.38,0-112.76,0-169.13v-20.95c0-10.03-15.58-10.04-15.58,0h0Z"/>
      <path d="M0,69.02c0,98.36,0,196.73,0,295.09C0,392.07,1.95,434.31,1.95,462.27c0,10.03,11.91,4.49,11.91-5.56,0-98.36,1.72-205.46,1.72-303.82,0-27.96,0-55.91,0-83.87,0-10.03-15.58-10.04-15.58,0h0Z"/>
      <path d="M1.06,67.04c9.23,19.24,27.53,29.79,46.85,36.86,10.7,3.91,21.71,7.44,32.88,9.7,13.01,2.63,26.3,3.85,39.55,4.35,26.48,1,53.17.38,79.62-.93,26.92-1.33,53.84-4,80.34-9.02,19.97-3.78,48.87-7.62,57.01-29.68,4.19-11.36-.24-23.87-7.74-32.71-7.7-9.08-19.07-14.56-29.66-19.47C254.63,5.15,203.91-2.81,154.26.87c-23.57,1.75-47.04,5.76-69.68,12.55-21.99,6.6-43.16,15.75-63.61,26.14-5.5,2.79-10.94,5.68-16.36,8.62-8.81,4.79-.96,18.25,7.86,13.45,38.03-20.66,77.62-36.75,120.69-42.94,44.91-6.45,91.48-3.22,134.57,11.26,10.67,3.59,21.07,7.87,31.13,12.92,8.68,4.35,18.61,9.5,22.81,18.82,9.05,20.07-19.7,25.79-33.03,28.73-48.71,10.75-98.93,12.35-148.64,12.28-24.17-.04-48.25-1.16-71.48-8.38-16.73-5.2-35.02-10.65-47.03-24.21-2.89-3.26-5.1-7.02-6.98-10.94-1.82-3.79-7.24-4.8-10.66-2.79C-.02,58.65-.76,63.23,1.06,67.04h0Z"/>
      <path d="M239.66,291.82c-.1-.47-.2-.94-.29-1.41.28,1.52.02-.01,0-.42-.06-.95-.07-1.91-.02-2.86.03-.6.07-1.19.15-1.78-.05.36-.29,1.41.06-.05.28-1.17.55-2.33.94-3.47.15-.46.32-.91.5-1.36-.13.32-.6,1.21.09-.13.44-.86.88-1.72,1.38-2.55s1.03-1.64,1.63-2.4c-.84,1.08.17-.13.39-.38.4-.45.82-.89,1.24-1.31.34-.34.69-.67,1.05-.99-.13.12,1.77-1.45.97-.83-.67.51.6-.41.74-.5.42-.28.84-.56,1.27-.82.97-.6,1.97-1.1,2.98-1.63.18-.09,1.35-.63.21-.14.69-.3,1.41-.55,2.13-.79,1.93-.65,3.89-1.12,5.89-1.48,1.56-.29.54-.08.19-.04.51-.06,1.01-.11,1.52-.14,1.27-.1,2.54-.14,3.81-.12.51,0,1.01.02,1.52.05-.13,0,2.34.18,1.22.06-.92-.1.62.12.83.17.49.11.97.23,1.44.4l.35.12c-.73-.29-.69-.22.12.21-.24-.75-1.06.13-.03.1-.12,0-.98-1.49-.1-.05.79,1.29-.11-1.15.21.48.08.42.21.85.31,1.27.11.49-.04,1.29-.01-.09-.02.9.08,1.8.04,2.7-.02.45-.07.9-.09,1.35-.09,2.1.21-.98-.03.44-.2,1.19-.4,2.37-.66,3.54-.52,2.34-1.2,4.65-2.08,6.89.43-1.08-.74,1.56-.85,1.77-.6,1.18-1.27,2.33-2,3.44-.29.44-.59.88-.9,1.31.19-.26.8-.93-.19.23-.65.76-1.31,1.5-2.03,2.2-.36.35-.72.69-1.09,1.03.12-.11-1.75,1.45-.94.82.67-.52-.57.39-.72.49-.51.35-1.04.68-1.57,1-.53.31-1.08.61-1.63.89-.44.22-1.54.66-.51.27-1.15.44-2.34.81-3.54,1.08-.48.11-.97.2-1.46.28,1.65-.26-.56-.01-.76,0-.47.01-.94.01-1.4,0-.21,0-2.46-.25-.72.02-1.15-.18-2.3-.45-3.41-.81-.44-.14-.88-.3-1.32-.47,1.27.49-.27-.18-.66-.39s-.8-.46-1.19-.71c-.17-.11-1.59-1.23-.89-.61.83.73-.82-.82-.77-.77-.24-.24-1.54-1.77-.59-.53-2.46-3.23-6.82-5.27-10.66-2.79-3.19,2.06-5.44,7.19-2.79,10.66,7.81,10.25,21.26,14.71,33.62,10.34,12.58-4.45,21.16-15.1,25.06-27.62,3.75-12.01,4.28-28.66-10.33-33.23-6.01-1.88-13.14-1.27-19.21-.12-5.8,1.1-11.59,3.49-16.38,6.95-11.82,8.55-18.21,22.94-15.06,37.4.87,3.99,5.73,6.69,9.58,5.44,4.19-1.36,6.37-5.31,5.44-9.58h0Z"/>
      <path d="M193.14,259.74c-3.44-2.87-5.32-5.22-7.24-9.31-1.35-2.89-2.15-6.92-2.13-10.37.05-6.99,3.99-14.52,9.88-18.63,3.42-2.38,6.68-3.81,10.27-4.38,3.05-.48,7.22-.02,9.58,1.27,2.82,1.53,4.45,3.53,4.81,6.82.48,4.51-1.27,8.94-3.66,13.19-5.57,9.89-13.13,18.48-21.78,25.79-3.21,2.72-2.8,8.22,0,11.02,3.18,3.18,7.79,2.72,11.02,0,9.94-8.41,18.9-18.82,24.99-30.37,6.45-12.23,7.85-28.43-4.27-37.73-10.22-7.85-24.57-6.9-35.49-1.09-10.34,5.5-18.47,16.08-20.32,27.73-2.17,13.62,2.6,28.14,13.31,37.09,3.23,2.7,16,7.96,19.16,4.8,2.77-2.77-4.9-13.11-8.14-15.82h0Z"/>
      <path d="M148.54,270.9c10.99-7.37,18.07-19.91,17.87-33.28-.2-13.08-7.54-25.3-18.52-32.24-12.21-7.72-29.41-7.76-38.49,4.65-7.69,10.52-7.39,27.2-2.95,38.94,5.88,15.55,20.42,26.47,37.46,23.46,4.15-.73,6.48-5.8,5.44-9.58-1.2-4.37-5.43-6.18-9.58-5.44,1.02-.18-.32.05-.46.06-.56.03-1.13.05-1.69.04-.55-.01-1.13-.03-1.69-.1,1.07.13-.31-.09-.43-.12-2.74-.7-3.59-.95-6.01-2.46-3.16-1.97-5.66-5.01-7.55-8.93-3.45-7.17-4.23-17.56-1.03-24.95-.42.97.16-.24.22-.35.27-.46.54-.93.8-1.39.71-1.24.45-.67.2-.35.34-.42.73-.77,1.09-1.16.96-1.04,2.66-1.8,4.87-2.14-.41.06-.98,0,.56-.01.6,0,1.18-.03,1.78,0,.59.02,1.2.05,1.78.13-.45-.07-.73-.19.58.16,2.73.72,3.63.98,5.5,2,6.72,3.65,11.52,10.31,12.43,17.57-.11-.85.05.84.06,1,.04.68.06,1.37.05,2.06,0,.55-.06,1.09-.07,1.64-.05,2.29.3-1.06-.12,1.19-.23,1.22-.5,2.42-.86,3.6-.16.53-.33,1.05-.52,1.57-.06.17-.72,1.72-.3.81-.51,1.12-1.1,2.22-1.75,3.27-.29.47-.58.93-.89,1.38-.17.24-1.11,1.47-.51.73-1.73,2.13-3.55,3.74-5.13,4.81-3.49,2.34-5.01,6.87-2.79,10.66,2.03,3.46,7.15,5.15,10.66,2.79h0Z"/>
      <path d="M106.51,300.33c1.43-13.87,2.16-27.81-3.83-40.79-5.14-11.16-15.7-19.42-28.2-19.77-13.12-.37-23.92,8.62-26.25,21.48-2.24,12.32-.58,26.46,8.13,36.03,9.55,10.5,24.8,10.88,37.92,10.12,4.06-.23,7.99-3.42,7.79-7.79-.18-4.02-3.43-8.04-7.79-7.79-4.72.27-9.46.46-14.18.02-.2-.02-1.77-.2-.85-.08,1.11.15-1.31-.23-1.2-.21-.97-.18-1.94-.4-2.89-.67-.47-.13-.94-.27-1.41-.43.11.04-2.11-.82-1.11-.39.99.43-1.14-.59-1.04-.53-.53-.29-1.06-.59-1.57-.92-.28-.18-1.53-1.12-.5-.29-.38-.31-.76-.65-1.12-.99-.2-.19-2.07-2.3-1.24-1.23-.75-.97-1.38-2.07-1.94-3.16-.22-.44-.45-.89-.64-1.34.52,1.23-.19-.69-.27-.94-.31-.96-.57-1.94-.78-2.92-.11-.5-.19-1-.29-1.5-.49-2.36.06.85-.09-.58-.25-2.41-.31-4.84-.19-7.26.05-1.05.11-2.11.26-3.14-.19,1.33.1-.33.17-.65.13-.64.28-1.28.46-1.9.14-.5.31-.99.47-1.48.07-.22.63-1.3.11-.28.23-.46.47-.92.74-1.36.18-.3,1.44-1.83.54-.85.31-.34.94-.77,1.16-1.17.45-.83-.88.45-.05-.01.85-.48,1.67-1.01,2.54-1.47-1.4.75.66-.18,1.22-.33.52-.14,1.11-.18,1.62-.36.58-.1.44-.08-.42.05.33-.03.67-.06,1-.07,1.02-.05,2.01,0,3.03.06-.3-.02-1.56-.31-.06,0,.44.09.88.17,1.32.28s.87.23,1.3.36c-.03,0,2.02.76.96.31-1.06-.45.91.48.89.47.53.29,1.04.6,1.55.94.26.17,1.55,1.15.55.35.39.31.77.65,1.13.99.74.69,1.4,1.43,2.09,2.17,1.6,1.71-.39-.62.42.5.37.51.73,1.04,1.06,1.57.68,1.08,1.3,2.19,1.85,3.34.22.46.45.92.64,1.4-.53-1.28.32.98.33,1.01.42,1.21.77,2.45,1.07,3.69.7,2.92.9,4.69,1.03,7.67.31,6.64-.37,13.26-1.05,19.86-.42,4.07,3.88,7.97,7.79,7.79,4.58-.21,7.34-3.43,7.79-7.79h0Z"/>
      <path d="M170.33,360.98c-6.53-1.32-12.33.41-17.53,4.47-4.56,3.56-7.29,8.57-11.2,12.72-6.56,6.96-16.58,2.5-21.64-4.11-12.68-16.55-2.8-39.06,9.31-52.54,7.59-8.45,16.55-16.69,26.27-22.63,9.27-5.67,18.5-6.53,27.63-.18,8.45,5.89,14.97,15.1,20.96,23.33,6.37,8.75,12.72,18.74,12.25,29.98-.37,8.89-5.78,18.86-14.56,21.34-7.08,2-17.04-1.01-19.7-8.34-1.44-3.95-5.29-6.62-9.58-5.44-3.81,1.05-6.89,5.61-5.44,9.58,4.41,12.13,15.47,19.37,28.16,20.33,12.73.96,24.42-6.43,30.82-17.14,15.94-26.69-3.93-54.49-21.29-74.51-8.91-10.27-20.58-19.46-34.82-19.44-14.98.02-27.43,9.91-38.24,19.17-20.47,17.53-38.89,42.46-31.33,70.91,3.95,14.87,15.82,27.44,31.66,28.78,7.98.67,15.63-2.6,20.98-8.49,2.52-2.78,8.31-13.74,13.18-12.76,4.12.83,8.41-1.18,9.58-5.44,1.06-3.84-1.3-8.75-5.44-9.58h0Z"/>
    </g>
  </g>
</svg>