<?xml version="1.0" encoding="UTF-8"?>
<svg id="Layer_2" data-name="Layer 2" xmlns="http://www.w3.org/2000/svg" viewBox="0 0 364.09 497.9">
  <g id="Layer_1-2" data-name="Layer 1">
    <g>
      <path d="M100.15,351.61c27.09-59.21,54.18-118.43,81.27-177.64,7.64-16.69,15.27-33.38,22.91-50.07,4.04-8.83-9.67-15.12-13.72-6.28-27.09,59.21-54.18,118.43-81.27,177.64-7.64,16.69-15.27,33.38-22.91,50.07-4.04,8.83,9.67,15.12,13.72,6.28h0Z"/>
      <path d="M268.41,152.28c-27.09,59.21-54.18,118.43-81.27,177.64-7.64,16.69-15.27,33.38-22.91,50.07-4.04,8.83,9.67,15.12,13.72,6.28,27.09-59.21,54.18-118.43,81.27-177.64,7.64-16.69,15.27-33.38,22.91-50.07,4.04-8.83-9.67-15.12-13.72-6.28h0Z"/>
      <path d="M173.15,393.05c24.95,12.77,35.06,44.85,20.42,69.15-13.08,21.72-43.9,27.85-63.24,10.93-4.7-4.12-8.46-9.31-10.73-15.15-2.54-6.54-2.26-14.2-8.09-19.02-6.92-5.72-14.95-1.88-21.9,1.29-6.02,2.75-12.35,4.49-18.93,5.17-22.99,2.38-59.25-10.93-55.55-39.57,1.96-15.16,12.48-30.02,24.18-39.42,12.2-9.8,28.77-14.64,43.43-7.36,8.7,4.32,14.97-9.4,6.28-13.72-34.02-16.91-70.45,11.22-84,41.77-7,15.78-7.32,33.77,3.37,48.02,10.06,13.42,26.26,21.66,42.54,24.54,16.05,2.84,32.36.27,46.98-6.76,1.4-.67,2.8-1.24,4.24-1.81,2.18-.86-.02-.19.03,0,1.08,3.67,1.61,7.47,2.91,11.09,2.75,7.67,7.39,14.47,13.13,20.21,23.49,23.5,63.87,19.33,84.04-6.39,11.97-15.26,15.96-35.62,11.37-54.36-4.5-18.34-17.49-33.79-34.18-42.33-8.65-4.43-14.91,9.3-6.28,13.72h0Z"/>
      <path d="M200.85,105.23c-12.15-6.04-21.56-16.79-25.94-29.63-4.43-12.98-2.56-27.31,4.36-39.08,13.72-23.34,48.15-29.33,67.45-9.28,9.82,10.2,13.55,25.1,10.06,38.72-1.74,6.81,6.75,10.41,11.79,7.37,23.03-13.89,55.63-13.3,72.69,9.78,7.51,10.16,10,23.46,5.85,35.54-4.14,12.01-13.85,19.93-26.06,22.9-14.2,3.44-29.35,1.23-43.57-.93-9.58-1.45-12.04,13.44-2.41,14.9,15.51,2.35,31.81,4.42,47.32,1.09,16.26-3.49,30.37-13.08,37.21-28.61,6.96-15.81,5.65-33.87-2.87-48.76-8.63-15.1-24.65-25.57-41.5-29.08-19.06-3.97-38.9.92-55.35,10.84,3.93,2.46,7.86,4.92,11.79,7.37,4.13-16.15-.17-34.2-10.42-47.25C250.19,7.04,233.37-.21,215.6,0c-37.24.46-64.79,37.66-56.82,73.56,4.38,19.73,17.72,36.41,35.79,45.38,8.7,4.32,14.97-9.4,6.28-13.72h0Z"/>
    </g>
  </g>
</svg>