<?xml version="1.0" encoding="UTF-8"?>
<svg id="Layer_2" data-name="Layer 2" xmlns="http://www.w3.org/2000/svg" viewBox="0 0 265.72 498.72">
  <g id="Layer_1-2" data-name="Layer 1">
    <g>
      <path d="M9.83,49.98c46.8-11.29,93.59-22.59,140.39-33.88,10.19-2.46,6.39-18.31-3.82-15.84C99.59,11.55,52.8,22.85,6,34.14c-10.19,2.46-6.39,18.31,3.82,15.84h0Z"/>
      <path d="M141.68,13.86c14.34,59.41,29.56,118.21,42.82,173.12,13.67,56.64,27.34,113.27,41.01,169.91,7.69,31.87,15.39,63.75,23.08,95.62,2.46,10.19,18.31,6.39,15.84-3.82-13.61-56.37-27.21-112.75-40.82-169.12-13.67-56.64-27.34-113.27-41.01-169.91-7.69-31.87-17.39-67.75-25.08-99.63-2.46-10.19-16.31-2.39-13.84,7.83l-2-4Z"/>
      <path d="M116.64,498.46c47.7-11.51,95.39-23.02,143.09-34.53,10.19-2.46,6.39-18.31-3.82-15.84-47.7,11.51-95.39,23.02-143.09,34.53-10.19,2.46-6.39,18.31,3.82,15.84h0Z"/>
      <path d="M95.37,422.17c43.2-10.43,92.39-20.85,135.59-31.28,10.19-2.46,6.39-18.31-3.82-15.84-43.2,10.43-92.39,20.85-135.59,31.28-10.19,2.46-6.39,18.31,3.82,15.84h0Z"/>
      <path d="M218.08,303.38c-46.64,7.64-92.71,18.49-137.86,32.47-4.2,1.3-7.09,5.36-6.01,9.83.98,4.08,5.61,7.32,9.83,6.01,45.15-13.98,91.22-24.83,137.86-32.47,4.35-.71,6.99-5.78,6.01-9.83-1.1-4.55-5.47-6.72-9.83-6.01h0Z"/>
      <path d="M199.82,221.64c-50.39,12.16-100.79,24.33-151.18,36.49-10.19,2.46-6.39,18.31,3.82,15.84,50.39-12.16,100.79-24.33,151.18-36.49,10.19-2.46,6.39-18.31-3.82-15.84h0Z"/>
      <path d="M172.28,143.52c-48.23,6.12-95.31,18.35-140.6,35.98-4.11,1.6-5.1,7.6-3.18,11.08,2.36,4.28,6.96,4.78,11.08,3.18,43.84-17.06,89.88-28.47,136.52-34.39,4.37-.56,6.96-5.89,6.01-9.83-1.13-4.68-5.45-6.57-9.83-6.01h0Z"/>
      <path d="M161.88,70.36c-45.9,11.08-101.8,22.15-147.69,33.23-10.19,2.46-6.39,18.31,3.82,15.84,45.9-11.08,101.8-22.15,147.69-33.23,10.19-2.46,6.39-18.31-3.82-15.84h0Z"/>
    </g>
  </g>
</svg>